<?xml version="1.0" encoding="UTF-8" standalone="no"?>
<svg viewBox="0 0 32 32" version="1.1" xmlns="http://www.w3.org/2000/svg" xmlns:xlink="http://www.w3.org/1999/xlink">
<g>
	<path d="M13.9,1.8c6.6,0,11.9,5.3,11.9,11.9c0,6.6-5.3,12-11.9,11.9c-6.6,0-11.9-5.4-11.9-12C2,7.1,7.4,1.8,13.9,1.8z M13.8,4.3
		c-5.2,0-9.4,4.3-9.4,9.4c0,5.2,4.3,9.4,9.4,9.4c5.2,0,9.5-4.3,9.4-9.5C23.3,8.5,19,4.3,13.8,4.3z"></path>
	<path d="M22,25.1c1.1-1.1,2.2-2.2,3.4-3.4c0.4,0.5,0.8,0.9,1.3,1.4c1.1,1.1,2.2,2.1,3.2,3.2c1.2,1.4,0.5,3.5-1.3,3.9
		c-0.7,0.2-1.5,0-2-0.5C25,28.2,23.5,26.6,22,25.1z"></path>
</g>
</svg>
